<?xml version="1.0" encoding="UTF-8" standalone="no" ?>
<!DOCTYPE svg PUBLIC "-//W3C//DTD SVG 1.1//EN" "http://www.w3.org/Graphics/SVG/1.1/DTD/svg11.dtd">
<svg xmlns="http://www.w3.org/2000/svg" xmlns:xlink="http://www.w3.org/1999/xlink" version="1.1" width="640" height="640" viewBox="0 0 640 640" xml:space="preserve">
<desc>Created with Fabric.js 4.6.0</desc>
<defs>
</defs>
<g transform="matrix(3.54 0 0 3.54 319.6 319.6)" id="-FzHuK9i8sW0w7qng17Ud"  >
<path style="stroke: rgb(104,167,73); stroke-width: 0; stroke-dasharray: none; stroke-linecap: butt; stroke-dashoffset: 0; stroke-linejoin: miter; stroke-miterlimit: 4; fill: rgb(49,168,247); fill-rule: nonzero; opacity: 1;" vector-effect="non-scaling-stroke"  transform=" translate(0, 0)" d="M 0 -88.75968 C 23.73522 -88.75968 45.3041 -79.42777000000001 61.23537 -64.23523 L 61.23536 -15.837830000000004 L 61.23536 13.286169999999995 L 59.61404 13.286169999999995 C 59.803270000000005 15.036099999999994 59.900360000000006 16.813529999999993 59.900360000000006 18.613499999999995 C 59.900360000000006 20.413459999999993 59.80326000000001 22.190889999999996 59.61404 23.940819999999995 L 71.65794 23.940819999999995 C 71.66117 23.903499999999994 71.66436999999999 23.866189999999996 71.66753 23.828849999999996 L 71.89003 23.828849999999996 L 71.89003 13.286169999999995 L 71.89000999999999 13.286169999999995 L 71.89000999999999 -52.0487 C 82.50092 -37.42314999999999 88.75968999999999 -19.438039999999994 88.75968999999999 0 C 88.75968999999999 48.99535 48.995349999999995 88.75969 -1.4210854715202004e-14 88.75969 C -23.734310000000015 88.75969 -45.30246000000002 79.42849000000001 -61.233550000000015 64.23698 L -61.233550000000015 61.939800000000005 L -61.23354000000001 15.828850000000003 L -61.23354000000001 -13.295149999999996 L -59.612220000000015 -13.295149999999996 C -59.80145000000002 -15.045079999999995 -59.89854000000002 -16.822509999999994 -59.89854000000002 -18.622479999999996 C -59.89854000000002 -20.422439999999995 -59.80144000000002 -22.199869999999997 -59.612220000000015 -23.949799999999996 L -71.65612000000002 -23.949799999999996 C -71.65935000000002 -23.912479999999995 -71.66255000000001 -23.875169999999997 -71.66571000000002 -23.837829999999997 L -71.88821000000002 -23.837829999999997 L -71.88821000000002 -13.295149999999996 L -71.88819000000001 -13.295149999999996 L -71.88819000000001 52.05122 C -82.50021000000001 37.42522 -88.75969 19.43916 -88.75969 0 C -88.75969 -48.99535 -48.99535000000001 -88.75969 0 -88.75969 z M -10.83473 -79.67344 C -10.84045 -79.67344 -16.27236 -79.67344 -16.278100000000002 -79.67344 L -16.278100000000002 -79.43656 C -45.677890000000005 -76.83633 -69.11218 -53.36755 -71.65872 -23.95243 L -59.61482 -23.95243 C -57.15023 -46.74514 -39.05532 -64.87374 -16.278100000000002 -67.39018 L -16.278100000000002 -23.949800000000003 L -59.612210000000005 -23.949800000000003 C -59.80144000000001 -22.199870000000004 -59.89853000000001 -20.422450000000005 -59.89853000000001 -18.622480000000003 C -59.89853000000001 -16.822530000000004 -59.80143000000001 -15.045090000000004 -59.612210000000005 -13.295150000000003 L -16.162040000000005 -13.295150000000003 L -16.162040000000005 30.154999999999998 C -14.412110000000006 30.344229999999996 -12.634690000000004 30.441319999999997 -10.834720000000004 30.441319999999997 C -9.034750000000004 30.441319999999997 -7.257330000000005 30.344219999999996 -5.5073900000000044 30.154999999999998 L -5.5073900000000044 -23.9498 L -5.623440000000005 -23.9498 L -5.623440000000005 -67.41236 C -5.5847400000000045 -67.40826000000001 -5.546060000000005 -67.40412 -5.5073900000000044 -67.39995 L -5.5073900000000044 -79.44385 C -5.546070000000005 -79.4472 -5.5847400000000045 -79.45052 -5.623440000000005 -79.45379 L -5.623440000000005 -79.67343 C -5.629160000000005 -79.67343 -10.828980000000005 -79.67343 -10.834720000000004 -79.67343 z M -10.83473 42.42851 C -9.03989 42.42851 -7.26305 42.350930000000005 -5.5074000000000005 42.19894 L -5.5074000000000005 30.15501 C -7.2573300000000005 30.34424 -9.03476 30.44133 -10.83473 30.44133 C -12.63469 30.44133 -14.41212 30.34423 -16.16205 30.15501 L -16.16205 42.198930000000004 C -14.406400000000001 42.350910000000006 -12.629560000000001 42.42850000000001 -10.83472 42.42850000000001 z M 10.83655 79.66448 C 10.842270000000001 79.66448 16.27418 79.66448 16.27992 79.66448 L 16.27992 79.4276 C 45.67971 76.82737 69.114 53.35859 71.66054 23.943469999999998 L 59.61664 23.943469999999998 C 57.152049999999996 46.73618 39.05714 64.86478 16.279919999999997 67.38122 L 16.279919999999997 23.94084 L 59.61403 23.94084 C 59.80326 22.190910000000002 59.90035 20.413490000000003 59.90035 18.61352 C 59.90035 16.813570000000002 59.803250000000006 15.036130000000002 59.61403 13.286190000000001 L 16.16386 13.286190000000001 L 16.16386 -30.16396 C 14.41393 -30.353189999999998 12.63651 -30.45028 10.83654 -30.45028 C 9.03657 -30.45028 7.25915 -30.35318 5.5092099999999995 -30.16396 L 5.5092099999999995 23.940839999999998 L 5.62526 23.940839999999998 L 5.62526 67.4034 C 5.5865599999999995 67.39930000000001 5.54788 67.39516 5.5092099999999995 67.39099 L 5.5092099999999995 79.43489 C 5.54789 79.43824 5.5865599999999995 79.44156 5.62526 79.44483 L 5.62526 79.66447 C 5.63098 79.66447 10.8308 79.66447 10.83654 79.66447 z M 10.83655 -42.43747 C 9.04171 -42.43747 7.26487 -42.35989 5.509220000000001 -42.207899999999995 L 5.509220000000001 -30.163969999999996 C 7.259150000000001 -30.353199999999994 9.03658 -30.450289999999995 10.83655 -30.450289999999995 C 12.636510000000001 -30.450289999999995 14.41394 -30.353189999999994 16.163870000000003 -30.163969999999996 L 16.163870000000003 -42.20788999999999 C 14.408220000000004 -42.359869999999994 12.631380000000004 -42.437459999999994 10.836540000000003 -42.437459999999994 z" stroke-linecap="round" />
</g>
</svg>